<?xml version="1.0" encoding="UTF-8" standalone="no"?>
<!DOCTYPE svg PUBLIC "-//W3C//DTD SVG 1.1//EN"
 "http://www.w3.org/Graphics/SVG/1.1/DTD/svg11.dtd">
<!-- Generated by graphviz version 5.0.0 (20220707.1540)
 -->
<!-- Title: UmlClassDiagram Pages: 1 -->
<svg width="1736pt" height="1161pt"
 viewBox="0.00 0.00 1736.00 1161.20" xmlns="http://www.w3.org/2000/svg" xmlns:xlink="http://www.w3.org/1999/xlink">
<g id="graph0" class="graph" transform="scale(1 1) rotate(0) translate(4 1157.2)">
<title>UmlClassDiagram</title>
<polygon fill="white" stroke="transparent" points="-4,4 -4,-1157.2 1732,-1157.2 1732,4 -4,4"/>
<!-- 0 -->
<g id="node1" class="node">
<title>0</title>
<polygon fill="#f2f2f2" stroke="black" points="335.39,-0.5 335.39,-898.1 1391.61,-898.1 1391.61,-0.5 335.39,-0.5"/>
<text text-anchor="middle" x="863.5" y="-881.5" font-family="Times,serif" font-size="14.00">GestionDeNotes</text>
<text text-anchor="middle" x="863.5" y="-864.7" font-family="Times,serif" font-size="14.00">contractsUmlClassDiagramestionDeNotes.sol</text>
<polyline fill="none" stroke="black" points="335.39,-856.5 1391.61,-856.5 "/>
<text text-anchor="start" x="343.39" y="-839.9" font-family="Times,serif" font-size="14.00">Private:</text>
<text text-anchor="start" x="343.39" y="-823.1" font-family="Times,serif" font-size="14.00"> &#160;&#160;users: mapping(address=&gt;User)</text>
<text text-anchor="start" x="343.39" y="-806.3" font-family="Times,serif" font-size="14.00"> &#160;&#160;usersByEmail: mapping(bytes32=&gt;User)</text>
<text text-anchor="start" x="343.39" y="-789.5" font-family="Times,serif" font-size="14.00"> &#160;&#160;userNotes: mapping(address=&gt;uint[])</text>
<text text-anchor="start" x="343.39" y="-772.7" font-family="Times,serif" font-size="14.00"> &#160;&#160;userTokens: mapping(address=&gt;string)</text>
<text text-anchor="start" x="343.39" y="-755.9" font-family="Times,serif" font-size="14.00"> &#160;&#160;userAddresses: address[]</text>
<text text-anchor="start" x="343.39" y="-739.1" font-family="Times,serif" font-size="14.00"> &#160;&#160;ProfAddresses: address[]</text>
<text text-anchor="start" x="343.39" y="-722.3" font-family="Times,serif" font-size="14.00">Public:</text>
<text text-anchor="start" x="343.39" y="-705.5" font-family="Times,serif" font-size="14.00"> &#160;&#160;identifiers: mapping(bytes32=&gt;Identifier)</text>
<text text-anchor="start" x="343.39" y="-688.7" font-family="Times,serif" font-size="14.00"> &#160;&#160;personalInfos: mapping(address=&gt;PersonalInfo)</text>
<text text-anchor="start" x="343.39" y="-671.9" font-family="Times,serif" font-size="14.00"> &#160;&#160;notes: mapping(uint=&gt;Note)</text>
<text text-anchor="start" x="343.39" y="-655.1" font-family="Times,serif" font-size="14.00"> &#160;&#160;userProfiles: mapping(address=&gt;UserProfile)</text>
<text text-anchor="start" x="343.39" y="-638.3" font-family="Times,serif" font-size="14.00"> &#160;&#160;noteCount: uint</text>
<text text-anchor="start" x="343.39" y="-621.5" font-family="Times,serif" font-size="14.00"> &#160;&#160;professeurs: mapping(uint=&gt;ProfStatu)</text>
<text text-anchor="start" x="343.39" y="-604.7" font-family="Times,serif" font-size="14.00"> &#160;&#160;profeCount: uint</text>
<text text-anchor="start" x="343.39" y="-587.9" font-family="Times,serif" font-size="14.00"> &#160;&#160;owner: address</text>
<polyline fill="none" stroke="black" points="335.39,-579.7 1391.61,-579.7 "/>
<text text-anchor="start" x="343.39" y="-563.1" font-family="Times,serif" font-size="14.00">Internal:</text>
<text text-anchor="start" x="343.39" y="-546.3" font-family="Times,serif" font-size="14.00"> &#160;&#160;&#160;generateRandomToken(): string</text>
<text text-anchor="start" x="343.39" y="-529.5" font-family="Times,serif" font-size="14.00"> &#160;&#160;&#160;bytes32ToString(_bytes32: bytes32): string</text>
<text text-anchor="start" x="343.39" y="-512.7" font-family="Times,serif" font-size="14.00">External:</text>
<text text-anchor="start" x="343.39" y="-495.9" font-family="Times,serif" font-size="14.00"> &#160;&#160;&#160;uploadImage(_ipfsLink: string, _nom: string, _prenom: string)</text>
<text text-anchor="start" x="343.39" y="-479.1" font-family="Times,serif" font-size="14.00"> &#160;&#160;&#160;getUserProfile(userAddress: address): (string, string, string)</text>
<text text-anchor="start" x="343.39" y="-462.3" font-family="Times,serif" font-size="14.00"> &#160;&#160;&#160;displayUserProfile(userAddress: address): string</text>
<text text-anchor="start" x="343.39" y="-445.5" font-family="Times,serif" font-size="14.00">Public:</text>
<text text-anchor="start" x="343.39" y="-428.7" font-family="Times,serif" font-size="14.00"> &#160;&#160;&#160;&lt;&lt;event&gt;&gt; UserRegistered(userAddress: address, username: bytes32, email: bytes32, isProfessor: bool)</text>
<text text-anchor="start" x="343.39" y="-411.9" font-family="Times,serif" font-size="14.00"> &#160;&#160;&#160;&lt;&lt;event&gt;&gt; UserLoggedIn(userAddress: address, username: bytes32)</text>
<text text-anchor="start" x="343.39" y="-395.1" font-family="Times,serif" font-size="14.00"> &#160;&#160;&#160;&lt;&lt;event&gt;&gt; Ajout_des_Notes(id: uint, Matier: string, value: uint, nom: string, prenom: string, _niveaux: string, _mentions: string, _AnneeUniversitaire: string, timestamp: uint)</text>
<text text-anchor="start" x="343.39" y="-378.3" font-family="Times,serif" font-size="14.00"> &#160;&#160;&#160;&lt;&lt;event&gt;&gt; Mise_a_jours_des_Notes(id: uint, Matier: string, value: uint, nom: string, prenom: string, _niveaux: string, _mentions: string, _AnneeUniversitaire: string, timestamp: uint)</text>
<text text-anchor="start" x="343.39" y="-361.5" font-family="Times,serif" font-size="14.00"> &#160;&#160;&#160;&lt;&lt;event&gt;&gt; Effacer_des_Notes(id: uint)</text>
<text text-anchor="start" x="343.39" y="-344.7" font-family="Times,serif" font-size="14.00"> &#160;&#160;&#160;&lt;&lt;event&gt;&gt; Ajout_des_Professeurs(profId: uint, nom: string, prenom: string, niveaux: string, mentions: string, matieres: string, _AnneeUniversitaire: string)</text>
<text text-anchor="start" x="343.39" y="-327.9" font-family="Times,serif" font-size="14.00"> &#160;&#160;&#160;&lt;&lt;event&gt;&gt; ConnexionReussie(userAddress: address, token: bytes32)</text>
<text text-anchor="start" x="343.39" y="-311.1" font-family="Times,serif" font-size="14.00"> &#160;&#160;&#160;&lt;&lt;modifier&gt;&gt; onlyOwnerOrAuthorized()</text>
<text text-anchor="start" x="343.39" y="-294.3" font-family="Times,serif" font-size="14.00"> &#160;&#160;&#160;&lt;&lt;modifier&gt;&gt; onlyRegisteredUser()</text>
<text text-anchor="start" x="343.39" y="-277.5" font-family="Times,serif" font-size="14.00"> &#160;&#160;&#160;creerIdentifiant(_identifier: bytes32, _isProfessor: bool) &lt;&lt;onlyOwnerOrAuthorized&gt;&gt;</text>
<text text-anchor="start" x="343.39" y="-260.7" font-family="Times,serif" font-size="14.00"> &#160;&#160;&#160;sInscrire(_username: bytes32, _email: bytes32, _password: bytes32, _identifier: bytes32)</text>
<text text-anchor="start" x="343.39" y="-243.9" font-family="Times,serif" font-size="14.00"> &#160;&#160;&#160;setPersonalInfo(_name: bytes32, _firstName: bytes32, _age: uint256, _ville: bytes32, _sexe: bytes32, _niveau: bytes32, _mention: bytes32) &lt;&lt;onlyRegisteredUser&gt;&gt;</text>
<text text-anchor="start" x="343.39" y="-227.1" font-family="Times,serif" font-size="14.00"> &#160;&#160;&#160;getPersonalInfo(): (bytes32, bytes32, uint256, bytes32, bytes32, bytes32, bytes32)</text>
<text text-anchor="start" x="343.39" y="-210.3" font-family="Times,serif" font-size="14.00"> &#160;&#160;&#160;seConnecter(_email: bytes32, _password: bytes32)</text>
<text text-anchor="start" x="343.39" y="-193.5" font-family="Times,serif" font-size="14.00"> &#160;&#160;&#160;estProfesseur(_userAddress: address): bool</text>
<text text-anchor="start" x="343.39" y="-176.7" font-family="Times,serif" font-size="14.00"> &#160;&#160;&#160;estInscrit(_userAddress: address): bool</text>
<text text-anchor="start" x="343.39" y="-159.9" font-family="Times,serif" font-size="14.00"> &#160;&#160;&#160;ajouterNote(_Matier: string, _value: uint, _nom: string, _prenom: string, _niveaux: string, _mentions: string, _AnneeUniversitaire: string)</text>
<text text-anchor="start" x="343.39" y="-143.1" font-family="Times,serif" font-size="14.00"> &#160;&#160;&#160;mettreAJourNote(_id: uint, _Matier: string, _value: uint, _nom: string, _prenom: string, _niveaux: string, _mentions: string, _AnneeUniversitaire: string)</text>
<text text-anchor="start" x="343.39" y="-126.3" font-family="Times,serif" font-size="14.00"> &#160;&#160;&#160;supprimerNote(_id: uint)</text>
<text text-anchor="start" x="343.39" y="-109.5" font-family="Times,serif" font-size="14.00"> &#160;&#160;&#160;obtenirNote(_id: uint): (uint, string, uint, string, string, string, string, string, uint)</text>
<text text-anchor="start" x="343.39" y="-92.7" font-family="Times,serif" font-size="14.00"> &#160;&#160;&#160;getNoteIdsForUser(_userAddress: address): uint[]</text>
<text text-anchor="start" x="343.39" y="-75.9" font-family="Times,serif" font-size="14.00"> &#160;&#160;&#160;ajouterProfesseur(_nom: string, _prenom: string, _niveaux: string, _mentions: string, _matieres: string, _AnneeUniversitaire: string)</text>
<text text-anchor="start" x="343.39" y="-59.1" font-family="Times,serif" font-size="14.00"> &#160;&#160;&#160;obtenirProfesseur(_profId: uint): (nom: string, prenom: string, niveaux: string, mentions: string, matieres: string, AnneeUniversitaire: string)</text>
<text text-anchor="start" x="343.39" y="-42.3" font-family="Times,serif" font-size="14.00"> &#160;&#160;&#160;getAllPersonalInfo(): (bytes32[], bytes32[], bytes32[], bytes32[])</text>
<text text-anchor="start" x="343.39" y="-25.5" font-family="Times,serif" font-size="14.00"> &#160;&#160;&#160;getAllProfesseursNames(): (bytes32[], bytes32[])</text>
<text text-anchor="start" x="343.39" y="-8.7" font-family="Times,serif" font-size="14.00"> &#160;&#160;&#160;getAuthToken(): bytes32</text>
</g>
<!-- 1 -->
<g id="node2" class="node">
<title>1</title>
<polygon fill="#f2f2f2" stroke="black" points="0,-968.7 0,-1119.1 273,-1119.1 273,-968.7 0,-968.7"/>
<text text-anchor="middle" x="136.5" y="-1102.5" font-family="Times,serif" font-size="14.00">&lt;&lt;Struct&gt;&gt;</text>
<text text-anchor="middle" x="136.5" y="-1085.7" font-family="Times,serif" font-size="14.00">User</text>
<text text-anchor="middle" x="136.5" y="-1068.9" font-family="Times,serif" font-size="14.00">contractsUmlClassDiagramestionDeNotes.sol</text>
<polyline fill="none" stroke="black" points="0,-1060.7 273,-1060.7 "/>
<text text-anchor="start" x="8" y="-1044.1" font-family="Times,serif" font-size="14.00">username: bytes32</text>
<text text-anchor="start" x="8" y="-1027.3" font-family="Times,serif" font-size="14.00">email: bytes32</text>
<text text-anchor="start" x="8" y="-1010.5" font-family="Times,serif" font-size="14.00">password: bytes32</text>
<text text-anchor="start" x="8" y="-993.7" font-family="Times,serif" font-size="14.00">isProfessor: bool</text>
<text text-anchor="start" x="8" y="-976.9" font-family="Times,serif" font-size="14.00">isRegistered: bool</text>
</g>
<!-- 0&#45;&gt;1 -->
<g id="edge8" class="edge">
<title>0&#45;&gt;1</title>
<path fill="none" stroke="black" d="M335.29,-875.86C296.57,-907.68 261.01,-937.03 230.99,-961.95"/>
<polygon fill="black" stroke="black" points="228.54,-959.45 223.08,-968.53 233.01,-964.83 228.54,-959.45"/>
</g>
<!-- 2 -->
<g id="node3" class="node">
<title>2</title>
<polygon fill="#f2f2f2" stroke="black" points="291,-951.9 291,-1135.9 564,-1135.9 564,-951.9 291,-951.9"/>
<text text-anchor="middle" x="427.5" y="-1119.3" font-family="Times,serif" font-size="14.00">&lt;&lt;Struct&gt;&gt;</text>
<text text-anchor="middle" x="427.5" y="-1102.5" font-family="Times,serif" font-size="14.00">PersonalInfo</text>
<text text-anchor="middle" x="427.5" y="-1085.7" font-family="Times,serif" font-size="14.00">contractsUmlClassDiagramestionDeNotes.sol</text>
<polyline fill="none" stroke="black" points="291,-1077.5 564,-1077.5 "/>
<text text-anchor="start" x="299" y="-1060.9" font-family="Times,serif" font-size="14.00">name: bytes32</text>
<text text-anchor="start" x="299" y="-1044.1" font-family="Times,serif" font-size="14.00">firstName: bytes32</text>
<text text-anchor="start" x="299" y="-1027.3" font-family="Times,serif" font-size="14.00">age: uint256</text>
<text text-anchor="start" x="299" y="-1010.5" font-family="Times,serif" font-size="14.00">ville: bytes32</text>
<text text-anchor="start" x="299" y="-993.7" font-family="Times,serif" font-size="14.00">sexe: bytes32</text>
<text text-anchor="start" x="299" y="-976.9" font-family="Times,serif" font-size="14.00">niveau: bytes32</text>
<text text-anchor="start" x="299" y="-960.1" font-family="Times,serif" font-size="14.00">mention: bytes32</text>
</g>
<!-- 0&#45;&gt;2 -->
<g id="edge9" class="edge">
<title>0&#45;&gt;2</title>
<path fill="none" stroke="black" d="M527.99,-898.31C516.39,-914.35 505.42,-929.57 495.3,-943.7"/>
<polygon fill="black" stroke="black" points="492.41,-941.72 489.43,-951.89 498.1,-945.8 492.41,-941.72"/>
</g>
<!-- 3 -->
<g id="node4" class="node">
<title>3</title>
<polygon fill="#f2f2f2" stroke="black" points="582,-935.1 582,-1152.7 855,-1152.7 855,-935.1 582,-935.1"/>
<text text-anchor="middle" x="718.5" y="-1136.1" font-family="Times,serif" font-size="14.00">&lt;&lt;Struct&gt;&gt;</text>
<text text-anchor="middle" x="718.5" y="-1119.3" font-family="Times,serif" font-size="14.00">Note</text>
<text text-anchor="middle" x="718.5" y="-1102.5" font-family="Times,serif" font-size="14.00">contractsUmlClassDiagramestionDeNotes.sol</text>
<polyline fill="none" stroke="black" points="582,-1094.3 855,-1094.3 "/>
<text text-anchor="start" x="590" y="-1077.7" font-family="Times,serif" font-size="14.00">id: uint</text>
<text text-anchor="start" x="590" y="-1060.9" font-family="Times,serif" font-size="14.00">nom: string</text>
<text text-anchor="start" x="590" y="-1044.1" font-family="Times,serif" font-size="14.00">prenom: string</text>
<text text-anchor="start" x="590" y="-1027.3" font-family="Times,serif" font-size="14.00">Matier: string</text>
<text text-anchor="start" x="590" y="-1010.5" font-family="Times,serif" font-size="14.00">niveaux: string</text>
<text text-anchor="start" x="590" y="-993.7" font-family="Times,serif" font-size="14.00">mentions: string</text>
<text text-anchor="start" x="590" y="-976.9" font-family="Times,serif" font-size="14.00">AnneeUniversitaire: string</text>
<text text-anchor="start" x="590" y="-960.1" font-family="Times,serif" font-size="14.00">value: uint</text>
<text text-anchor="start" x="590" y="-943.3" font-family="Times,serif" font-size="14.00">timestamp: uint</text>
</g>
<!-- 0&#45;&gt;3 -->
<g id="edge10" class="edge">
<title>0&#45;&gt;3</title>
<path fill="none" stroke="black" d="M747.99,-898.31C745.87,-907.43 743.83,-916.28 741.88,-924.81"/>
<polygon fill="black" stroke="black" points="738.44,-924.16 739.62,-934.69 745.26,-925.72 738.44,-924.16"/>
</g>
<!-- 4 -->
<g id="node5" class="node">
<title>4</title>
<polygon fill="#f2f2f2" stroke="black" points="873,-985.5 873,-1102.3 1146,-1102.3 1146,-985.5 873,-985.5"/>
<text text-anchor="middle" x="1009.5" y="-1085.7" font-family="Times,serif" font-size="14.00">&lt;&lt;Struct&gt;&gt;</text>
<text text-anchor="middle" x="1009.5" y="-1068.9" font-family="Times,serif" font-size="14.00">Identifier</text>
<text text-anchor="middle" x="1009.5" y="-1052.1" font-family="Times,serif" font-size="14.00">contractsUmlClassDiagramestionDeNotes.sol</text>
<polyline fill="none" stroke="black" points="873,-1043.9 1146,-1043.9 "/>
<text text-anchor="start" x="881" y="-1027.3" font-family="Times,serif" font-size="14.00">identifier: bytes32</text>
<text text-anchor="start" x="881" y="-1010.5" font-family="Times,serif" font-size="14.00">isProfessor: bool</text>
<text text-anchor="start" x="881" y="-993.7" font-family="Times,serif" font-size="14.00">isUsed: bool</text>
</g>
<!-- 0&#45;&gt;4 -->
<g id="edge7" class="edge">
<title>0&#45;&gt;4</title>
<path fill="none" stroke="black" d="M967.99,-898.31C975.47,-927.21 982.41,-953.47 988.4,-975.44"/>
<polygon fill="black" stroke="black" points="985.07,-976.52 991.09,-985.23 991.82,-974.66 985.07,-976.52"/>
</g>
<!-- 5 -->
<g id="node6" class="node">
<title>5</title>
<polygon fill="#f2f2f2" stroke="black" points="1164,-960.3 1164,-1127.5 1437,-1127.5 1437,-960.3 1164,-960.3"/>
<text text-anchor="middle" x="1300.5" y="-1110.9" font-family="Times,serif" font-size="14.00">&lt;&lt;Struct&gt;&gt;</text>
<text text-anchor="middle" x="1300.5" y="-1094.1" font-family="Times,serif" font-size="14.00">ProfStatu</text>
<text text-anchor="middle" x="1300.5" y="-1077.3" font-family="Times,serif" font-size="14.00">contractsUmlClassDiagramestionDeNotes.sol</text>
<polyline fill="none" stroke="black" points="1164,-1069.1 1437,-1069.1 "/>
<text text-anchor="start" x="1172" y="-1052.5" font-family="Times,serif" font-size="14.00">nom: string</text>
<text text-anchor="start" x="1172" y="-1035.7" font-family="Times,serif" font-size="14.00">prenom: string</text>
<text text-anchor="start" x="1172" y="-1018.9" font-family="Times,serif" font-size="14.00">niveaux: string</text>
<text text-anchor="start" x="1172" y="-1002.1" font-family="Times,serif" font-size="14.00">mentions: string</text>
<text text-anchor="start" x="1172" y="-985.3" font-family="Times,serif" font-size="14.00">matieres: string</text>
<text text-anchor="start" x="1172" y="-968.5" font-family="Times,serif" font-size="14.00">AnneeUniversitaire: string</text>
</g>
<!-- 0&#45;&gt;5 -->
<g id="edge12" class="edge">
<title>0&#45;&gt;5</title>
<path fill="none" stroke="black" d="M1187.99,-898.31C1202.31,-917.42 1215.83,-935.37 1228.21,-951.69"/>
<polygon fill="black" stroke="black" points="1225.73,-954.22 1234.57,-960.07 1231.31,-949.99 1225.73,-954.22"/>
</g>
<!-- 6 -->
<g id="node7" class="node">
<title>6</title>
<polygon fill="#f2f2f2" stroke="black" points="1455,-985.5 1455,-1102.3 1728,-1102.3 1728,-985.5 1455,-985.5"/>
<text text-anchor="middle" x="1591.5" y="-1085.7" font-family="Times,serif" font-size="14.00">&lt;&lt;Struct&gt;&gt;</text>
<text text-anchor="middle" x="1591.5" y="-1068.9" font-family="Times,serif" font-size="14.00">UserProfile</text>
<text text-anchor="middle" x="1591.5" y="-1052.1" font-family="Times,serif" font-size="14.00">contractsUmlClassDiagramestionDeNotes.sol</text>
<polyline fill="none" stroke="black" points="1455,-1043.9 1728,-1043.9 "/>
<text text-anchor="start" x="1463" y="-1027.3" font-family="Times,serif" font-size="14.00">ipfsLink: string</text>
<text text-anchor="start" x="1463" y="-1010.5" font-family="Times,serif" font-size="14.00">nom: string</text>
<text text-anchor="start" x="1463" y="-993.7" font-family="Times,serif" font-size="14.00">prenom: string</text>
</g>
<!-- 0&#45;&gt;6 -->
<g id="edge11" class="edge">
<title>0&#45;&gt;6</title>
<path fill="none" stroke="black" d="M1391.8,-885.26C1435.88,-920.83 1475.9,-952.95 1508.34,-978.78"/>
<polygon fill="black" stroke="black" points="1506.42,-981.72 1516.42,-985.21 1510.78,-976.25 1506.42,-981.72"/>
</g>
<!-- 1&#45;&gt;0 -->
<g id="edge1" class="edge">
<title>1&#45;&gt;0</title>
<path fill="none" stroke="black" d="M232.3,-968.61C259.41,-946.94 290.96,-921.57 325.24,-893.9"/>
<polygon fill="black" stroke="black" points="325.64,-893.58 327.79,-886.7 334.98,-886.04 332.82,-892.92 325.64,-893.58"/>
</g>
<!-- 2&#45;&gt;0 -->
<g id="edge2" class="edge">
<title>2&#45;&gt;0</title>
<path fill="none" stroke="black" d="M499.49,-951.89C509.75,-938.33 520.8,-923.64 532.45,-908.1"/>
<polygon fill="black" stroke="black" points="532.58,-907.92 532.98,-900.72 539.77,-898.31 539.38,-905.51 532.58,-907.92"/>
</g>
<!-- 3&#45;&gt;0 -->
<g id="edge3" class="edge">
<title>3&#45;&gt;0</title>
<path fill="none" stroke="black" d="M750.34,-934.69C752.41,-926.77 754.55,-918.54 756.75,-910.05"/>
<polygon fill="black" stroke="black" points="756.78,-909.93 754.4,-903.12 759.77,-898.31 762.15,-905.12 756.78,-909.93"/>
</g>
<!-- 4&#45;&gt;0 -->
<g id="edge4" class="edge">
<title>4&#45;&gt;0</title>
<path fill="none" stroke="black" d="M999.5,-985.23C994.98,-964.33 989.19,-938.77 982.56,-910.26"/>
<polygon fill="black" stroke="black" points="982.5,-910 977.24,-905.06 979.77,-898.31 985.03,-903.25 982.5,-910"/>
</g>
<!-- 5&#45;&gt;0 -->
<g id="edge5" class="edge">
<title>5&#45;&gt;0</title>
<path fill="none" stroke="black" d="M1244.28,-960.07C1233.02,-944.33 1220.46,-926.88 1206.93,-908.19"/>
<polygon fill="black" stroke="black" points="1206.81,-908.03 1200.05,-905.52 1199.77,-898.31 1206.53,-900.83 1206.81,-908.03"/>
</g>
<!-- 6&#45;&gt;0 -->
<g id="edge6" class="edge">
<title>6&#45;&gt;0</title>
<path fill="none" stroke="black" d="M1524.76,-985.15C1492.01,-957.82 1449.29,-922.54 1401.3,-883.13"/>
<polygon fill="black" stroke="black" points="1401.23,-883.07 1394.05,-882.36 1391.95,-875.46 1399.13,-876.18 1401.23,-883.07"/>
</g>
</g>
</svg>
